<svg width="13" height="7" viewBox="0 0 13 7" fill="none" xmlns="http://www.w3.org/2000/svg">
<path d="M6.23018 6.49506C6.36335 6.47714 6.48685 6.42047 6.58356 6.33324L11.9164 1.55401C12.0511 1.44789 12.1329 1.29454 12.1426 1.13035C12.1523 0.966027 12.089 0.805315 11.9676 0.685998C11.8463 0.566677 11.6776 0.499448 11.5014 0.500003C11.3251 0.500558 11.157 0.5689 11.0364 0.689053L6.14355 5.07641L1.25066 0.689054C1.13013 0.568901 0.961997 0.500558 0.785674 0.500004C0.609499 0.499448 0.440765 0.566678 0.319507 0.685999C0.198089 0.80532 0.134849 0.966032 0.14452 1.13035C0.154192 1.29454 0.236028 1.44789 0.370691 1.55401L5.70355 6.33324C5.84371 6.45895 6.03744 6.51854 6.23013 6.49492L6.23018 6.49506Z" fill="#848C9C"/>
</svg>
