<svg width="13" height="7" viewBox="0 0 13 7" fill="none" xmlns="http://www.w3.org/2000/svg">
<path d="M6.23018 0.504936C6.36335 0.522855 6.48685 0.57953 6.58356 0.666761L11.9164 5.44599C12.0511 5.55211 12.1329 5.70546 12.1426 5.86965C12.1523 6.03397 12.089 6.19468 11.9676 6.314C11.8463 6.43332 11.6776 6.50055 11.5014 6.5C11.3251 6.49944 11.157 6.4311 11.0364 6.31095L6.14355 1.92359L1.25066 6.31095C1.13013 6.4311 0.961997 6.49944 0.785674 6.5C0.609499 6.50055 0.440765 6.43332 0.319507 6.314C0.198089 6.19468 0.134849 6.03397 0.14452 5.86965C0.154192 5.70546 0.236028 5.55211 0.370691 5.44599L5.70355 0.666761C5.84371 0.54105 6.03744 0.481463 6.23013 0.505075L6.23018 0.504936Z" fill="black"/>
</svg>
