<svg width="13" height="6" viewBox="0 0 13 6" fill="none" xmlns="http://www.w3.org/2000/svg">
<path d="M6.2292 0.00493617C6.36237 0.0228551 6.48587 0.0795297 6.58259 0.166761L11.9154 4.94599C12.0501 5.05211 12.1319 5.20547 12.1416 5.36965C12.1513 5.53397 12.088 5.69469 11.9666 5.814C11.8454 5.93332 11.6766 6.00055 11.5005 6C11.3241 5.99944 11.156 5.9311 11.0355 5.81095L6.14258 1.42359L1.24968 5.81095C1.12916 5.9311 0.961021 5.99944 0.784698 6C0.608523 6.00055 0.439789 5.93332 0.318531 5.814C0.197114 5.69468 0.133873 5.53397 0.143544 5.36965C0.153216 5.20546 0.235053 5.05211 0.369715 4.94599L5.70257 0.166761C5.84274 0.0410505 6.03647 -0.0185366 6.22915 0.00507508L6.2292 0.00493617Z" fill="#838C9C"/>
</svg>
