<svg width="12" height="6" viewBox="0 0 12 6" fill="none" xmlns="http://www.w3.org/2000/svg">
<path d="M6.08662 0.00493617C6.21979 0.0228551 6.3433 0.0795297 6.44001 0.166761L11.7729 4.94599C11.9075 5.05211 11.9894 5.20546 11.999 5.36965C12.0087 5.53397 11.9455 5.69468 11.824 5.814C11.7028 5.93332 11.534 6.00055 11.3579 6C11.1816 5.99944 11.0134 5.9311 10.8929 5.81095L6 1.42359L1.10711 5.81095C0.986579 5.9311 0.818442 5.99944 0.642119 6C0.465945 6.00055 0.29721 5.93332 0.175952 5.814C0.0545344 5.69468 -0.00870562 5.53397 0.000965603 5.36965C0.0106378 5.20546 0.0924735 5.05211 0.227136 4.94599L5.55999 0.166761C5.70016 0.0410505 5.89389 -0.0185366 6.08657 0.00507508L6.08662 0.00493617Z" fill="#838C9C"/>
</svg>
