<svg width="16" height="16" viewBox="0 0 16 16" fill="none" xmlns="http://www.w3.org/2000/svg">
<g clip-path="url(#clip0_476_579)">
<circle cx="8" cy="8" r="8" fill="#ECF1FA"/>
<path d="M8.53081 8.00008L10.8903 5.64054C11.0369 5.49407 11.0369 5.25642 10.8903 5.10995C10.7438 4.96335 10.5063 4.96335 10.3597 5.10995L8.00021 7.46949L5.64054 5.10995C5.49395 4.96335 5.25654 4.96335 5.10995 5.10995C4.96335 5.25642 4.96335 5.49407 5.10995 5.64054L7.46961 8.00008L5.10995 10.3596C4.96335 10.5061 4.96335 10.7437 5.10995 10.8902C5.18324 10.9634 5.27931 11 5.37525 11C5.47118 11 5.56725 10.9634 5.64054 10.8901L8.00021 8.53055L10.3597 10.8901C10.433 10.9634 10.5291 11 10.625 11C10.721 11 10.817 10.9634 10.8903 10.8901C11.0369 10.7436 11.0369 10.506 10.8903 10.3595L8.53081 8.00008Z" fill="#838C9C"/>
</g>
<defs>
<clipPath id="clip0_476_579">
<rect width="16" height="16" fill="white"/>
</clipPath>
</defs>
</svg>
