<svg width="21" height="22" viewBox="0 0 21 22" fill="none" xmlns="http://www.w3.org/2000/svg">
<path d="M3.6156 21.1398H17.3845C19.1509 21.1398 20.588 19.7026 20.588 17.9363V5.82894C20.588 4.06259 19.1509 2.62545 17.3845 2.62545H16.8762V1.49926C16.8762 1.1464 16.59 0.860229 16.2371 0.860229C15.8843 0.860229 15.5981 1.1464 15.5981 1.49926V2.62545H13.0514V1.49926C13.0514 1.1464 12.7655 0.860229 12.4124 0.860229C12.0593 0.860229 11.7734 1.1464 11.7734 1.49926V2.62545H9.22673V1.49926C9.22673 1.1464 8.94056 0.860229 8.58769 0.860229C8.23483 0.860229 7.94866 1.1464 7.94866 1.49926V2.62545H5.402V1.49926C5.402 1.1464 5.11606 0.860229 4.76297 0.860229C4.41011 0.860229 4.12394 1.1464 4.12394 1.49926V2.62545H3.6156C1.84925 2.62545 0.412109 4.06259 0.412109 5.82894V17.9361C0.411884 19.7026 1.84903 21.1398 3.6156 21.1398ZM1.83371 5.82894C1.83371 4.84651 2.63294 4.04727 3.61538 4.04727H4.12372V5.16332C4.12372 5.51619 4.40988 5.80235 4.76275 5.80235C5.11561 5.80235 5.40178 5.51619 5.40178 5.16332V4.04727H7.94844V5.16332C7.94844 5.51619 8.23461 5.80235 8.58747 5.80235C8.94033 5.80235 9.2265 5.51619 9.2265 5.16332V4.04727H11.7732V5.16332C11.7732 5.51619 12.0593 5.80235 12.4122 5.80235C12.7651 5.80235 13.0512 5.51619 13.0512 5.16332V4.04727H15.5979V5.16332C15.5979 5.51619 15.884 5.80235 16.2369 5.80235C16.5898 5.80235 16.8759 5.51619 16.8759 5.16332V4.04727H17.3843C18.3667 4.04727 19.166 4.84651 19.166 5.82894V17.9361C19.166 18.9185 18.3667 19.7177 17.3843 19.7177H3.6156C2.63317 19.7177 1.83393 18.9185 1.83393 17.9361V5.82894H1.83371Z" fill="#838C9C"/>
<path d="M6.75562 7.67566H4.54199V9.64683H6.75562V7.67566Z" fill="#838C9C"/>
<path d="M11.6072 7.67566H9.39355V9.64683H11.6072V7.67566Z" fill="#838C9C"/>
<path d="M16.4578 7.67566H14.2441V9.64683H16.4578V7.67566Z" fill="#838C9C"/>
<path d="M6.75562 11.403H4.54199V13.3741H6.75562V11.403Z" fill="#838C9C"/>
<path d="M11.6072 11.403H9.39355V13.3741H11.6072V11.403Z" fill="#838C9C"/>
<path d="M16.4578 11.403H14.2441V13.3741H16.4578V11.403Z" fill="#838C9C"/>
<path d="M6.75562 15.1301H4.54199V17.1013H6.75562V15.1301Z" fill="#838C9C"/>
<path d="M11.6072 15.1301H9.39355V17.1013H11.6072V15.1301Z" fill="#838C9C"/>
</svg>
